<svg width="25" height="24" viewBox="0 0 25 24" fill="none" xmlns="http://www.w3.org/2000/svg">
<g id="Iconly/Light-outline/Bookmark">
<g id="Bookmark">
<path id="Bookmark_2" fill-rule="evenodd" clip-rule="evenodd" d="M15.6523 2H9.68099C6.5758 2 4.66666 3.49929 4.66666 6.43434V20.3309C4.67114 20.613 4.73707 20.8782 4.85928 21.1174L4.95293 21.2719L5.05096 21.3975C5.5621 21.9969 6.37786 22.1624 7.05107 21.8037L12.6407 18.6635L18.253 21.7971C18.5034 21.9291 18.7632 21.9957 19.0275 22C19.4704 22.0001 19.8845 21.8242 20.1898 21.5112C20.4951 21.1982 20.6667 20.7736 20.6667 20.3309V6.25765C20.6667 3.43503 18.7148 2 15.6523 2ZM9.68099 3.44775H15.6523C18.0167 3.44775 19.2546 4.35788 19.2546 6.25765V20.3309C19.2546 20.3897 19.2319 20.446 19.1914 20.4875C19.1509 20.529 19.0959 20.5523 19.0387 20.5523C19.0022 20.5517 18.9553 20.5397 18.9129 20.5173L13.3102 17.3894C12.8917 17.1576 12.3899 17.1576 11.9735 17.3883L6.38627 20.5265C6.30151 20.5715 6.18039 20.5421 6.11585 20.4519L6.07838 20.3897C6.0856 20.4 6.08429 20.3876 6.08205 20.3662C6.08065 20.3528 6.07888 20.3359 6.07861 20.3189L6.07871 6.43434C6.07871 4.39579 7.28591 3.44775 9.68099 3.44775ZM16.7806 9.0405C16.7806 8.64072 16.4645 8.31663 16.0745 8.31663H9.20708L9.11128 8.32324C8.76667 8.37117 8.50106 8.67404 8.50106 9.0405C8.50106 9.44029 8.81715 9.76438 9.20708 9.76438H16.0745L16.1703 9.75777C16.5149 9.70984 16.7806 9.40697 16.7806 9.0405Z" fill="#C4C4C4"/>
</g>
</g>
</svg>
