<svg width="25" height="24" viewBox="0 0 25 24" fill="none" xmlns="http://www.w3.org/2000/svg">
<g id="Iconly/Light-outline/Heart">
<g id="Heart">
<path id="Heart_2" fill-rule="evenodd" clip-rule="evenodd" d="M6.81642 2.81529C3.14483 3.99738 1.50718 8.00569 2.73813 11.8295C3.36278 13.6301 4.37866 15.2485 5.71335 16.5762C7.54433 18.3545 9.55585 19.9194 11.7182 21.2491L11.9638 21.3961C12.1989 21.5369 12.4931 21.5344 12.7259 21.3897L12.9551 21.2473C15.1145 19.9194 17.126 18.3545 18.9507 16.5824C20.2917 15.2485 21.3076 13.6301 21.927 11.8452C23.1624 8.00801 21.518 3.9978 17.8453 2.81535L17.5796 2.73623C15.8957 2.27309 14.1063 2.5013 12.5978 3.35535L12.3297 3.51429L12.0663 3.35623C10.4752 2.45344 8.57371 2.25003 6.81642 2.81529ZM11.708 4.85427L11.9047 4.99538C12.164 5.18111 12.5139 5.17742 12.7693 4.98625C14.0993 3.99057 15.8206 3.70082 17.3974 4.20669C20.243 5.12284 21.538 8.28096 20.5397 11.382C19.9983 12.9417 19.102 14.3696 17.925 15.5405L17.3969 16.0421C15.9743 17.3642 14.4359 18.561 12.8024 19.6156L12.3346 19.9098L12.4774 19.9998C10.4138 18.7308 8.48706 17.2319 6.73913 15.5343C5.56836 14.3696 4.67208 12.9417 4.12538 11.3664C3.13139 8.27801 4.42077 5.12212 7.26485 4.20646C8.76662 3.72339 10.4039 3.96289 11.708 4.85427ZM16.2036 6.48374C15.8188 6.36093 15.4072 6.57304 15.2843 6.95749C15.1614 7.34194 15.3737 7.75316 15.7585 7.87597C16.5147 8.11735 17.0539 8.79803 17.1214 9.60096C17.1553 10.0031 17.509 10.3018 17.9115 10.2679C18.314 10.2341 18.6129 9.8807 18.579 9.47853C18.4621 8.08859 17.525 6.90551 16.2036 6.48374Z" fill="#C4C4C4"/>
</g>
</g>
</svg>
