<?xml version="1.0" ?><!DOCTYPE svg  PUBLIC '-//W3C//DTD SVG 1.1//EN'  'http://www.w3.org/Graphics/SVG/1.1/DTD/svg11.dtd'><svg height="100%" style="fill-rule:evenodd;clip-rule:evenodd;stroke-linejoin:round;stroke-miterlimit:2;" version="1.1" viewBox="0 0 24 24" width="100%" xml:space="preserve" xmlns="http://www.w3.org/2000/svg" xmlns:serif="http://www.serif.com/" xmlns:xlink="http://www.w3.org/1999/xlink"><g id="Icon"><path d="M5.25,9.5l0,2.798c-0,0.532 -0.242,1.035 -0.657,1.367c-0.304,0.244 -0.635,0.508 -0.914,0.731c-0.587,0.47 -0.929,1.181 -0.929,1.934c0,-0 0,-0 -0,-0c0,0.774 0.308,1.517 0.855,2.065c0.548,0.547 1.291,0.855 2.065,0.855l12.66,-0c0.774,0 1.517,-0.308 2.065,-0.855c0.547,-0.548 0.855,-1.291 0.855,-2.065c0,-0 0,-0 -0,-0c0,-0.753 -0.342,-1.464 -0.929,-1.934c-0.279,-0.223 -0.61,-0.487 -0.914,-0.731c-0.415,-0.332 -0.657,-0.835 -0.657,-1.367c0,-0.734 0,-1.735 -0,-2.798c-0,-3.728 -3.022,-6.75 -6.75,-6.75c0,0 0,-0 0,-0c-3.728,-0 -6.75,3.022 -6.75,6.75Zm1.5,-0c0,-2.9 2.351,-5.25 5.25,-5.25l0,-0c2.899,0 5.25,2.351 5.25,5.25c0,1.063 0,2.064 0,2.798c0,0.988 0.449,1.922 1.22,2.538c0.304,0.244 0.635,0.509 0.914,0.731c0.231,0.186 0.366,0.466 0.366,0.763c0,-0 0,-0 0,0c-0,0.377 -0.15,0.738 -0.416,1.004c-0.266,0.266 -0.627,0.416 -1.004,0.416l-12.66,0c-0.377,0 -0.738,-0.15 -1.004,-0.416c-0.266,-0.266 -0.416,-0.627 -0.416,-1.004c-0,-0 0,-0 0,-0c-0,-0.297 0.135,-0.577 0.366,-0.763c0.279,-0.222 0.61,-0.487 0.914,-0.731c0.771,-0.616 1.22,-1.55 1.22,-2.538l-0,-2.798Z"/><path d="M13.124,19.949c-0.331,0.192 -0.715,0.301 -1.124,0.301c-0.409,0 -0.793,-0.109 -1.124,-0.301c-0.358,-0.207 -0.818,-0.085 -1.025,0.273c-0.207,0.359 -0.085,0.818 0.273,1.025c0.552,0.32 1.193,0.503 1.876,0.503c0.683,0 1.324,-0.183 1.876,-0.503c0.358,-0.207 0.48,-0.666 0.273,-1.025c-0.207,-0.358 -0.667,-0.48 -1.025,-0.273Z"/></g></svg>